<?xml version="1.0" standalone="no"?>
<!DOCTYPE svg PUBLIC "-//W3C//DTD SVG 20010904//EN"
 "http://www.w3.org/TR/2001/REC-SVG-20010904/DTD/svg10.dtd">
<svg version="1.0" xmlns="http://www.w3.org/2000/svg"
 width="190.000000pt" height="165.000000pt" viewBox="0 0 190.000000 165.000000"
 preserveAspectRatio="xMidYMid meet">

<g transform="translate(0.000000,165.000000) scale(0.100000,-0.100000)"
fill="#000000" stroke="none">
<path d="M1098 1575 c-98 -40 -243 -151 -303 -234 -30 -40 -30 -41 -96 -41
l-67 0 -5 38 c-9 61 -39 176 -49 187 -16 17 -46 -31 -62 -105 -16 -70 -19
-190 -7 -245 12 -49 -6 -75 -50 -75 -60 0 -162 -36 -204 -73 -36 -31 -39 -38
-39 -88 -1 -37 3 -53 11 -52 7 2 10 -3 7 -11 -3 -8 18 -34 52 -64 34 -31 53
-55 49 -62 -4 -7 6 -26 25 -45 31 -32 32 -35 23 -86 l-8 -54 -48 -9 c-32 -6
-47 -14 -47 -25 0 -14 -2 -14 -11 -1 -8 12 -10 9 -6 -13 2 -15 2 -26 0 -23 -2
2 -29 -19 -59 -46 -44 -42 -54 -57 -54 -84 0 -38 40 -90 95 -124 39 -24 199
-83 299 -111 115 -31 291 -23 626 31 272 44 287 48 380 98 167 89 181 104 163
170 -4 18 -8 21 -15 10 -7 -9 -8 -4 -3 16 4 21 0 38 -18 65 -14 21 -27 46 -29
57 -2 11 -12 19 -24 19 -34 1 -132 58 -144 83 -7 17 -16 23 -30 19 -22 -6 -24
-1 -41 96 -6 37 -16 70 -21 73 -6 4 -8 -1 -5 -12 28 -102 39 -184 32 -260 -5
-68 -10 -83 -25 -87 -17 -4 -18 -2 -4 42 7 25 13 71 12 101 0 33 -3 43 -5 25
-10 -66 -22 -45 -20 33 2 66 -1 84 -15 99 -15 14 -18 14 -18 3 -1 -11 -4 -11
-15 4 -7 10 -18 15 -24 11 -6 -3 -11 1 -11 9 0 9 9 16 20 16 11 0 20 5 20 10
0 15 -40 12 -46 -3 -2 -7 3 -46 11 -87 24 -111 32 -309 14 -321 -23 -14 -30
-10 -23 14 9 39 -15 255 -36 318 -24 69 -23 66 -7 72 14 5 4 3 -112 -20 -97
-20 -93 -30 6 -14 66 10 83 8 83 -10 0 -6 -16 -8 -37 -4 -35 5 -34 4 9 -10 48
-16 51 -20 63 -90 14 -80 14 -121 3 -173 -9 -43 -17 -56 -45 -73 -18 -11 -33
-24 -33 -28 0 -4 -19 -13 -42 -20 -24 -7 -50 -19 -58 -26 -8 -8 -27 -18 -43
-24 l-27 -11 0 51 c0 42 3 49 18 47 9 -2 20 -7 23 -12 9 -11 31 3 24 15 -4 5
17 9 47 10 l53 1 -45 9 c-25 5 -59 7 -77 4 -17 -3 -34 -2 -37 3 -3 5 -7 37
-10 73 -2 35 -7 72 -11 82 -10 24 4 88 18 85 7 -1 28 8 47 20 19 12 30 22 24
22 -5 0 -19 -7 -30 -15 -10 -8 -27 -15 -37 -15 -10 0 -22 -10 -26 -22 -9 -23
-9 -22 -16 5 -5 17 -3 33 4 40 16 16 14 32 -3 18 -10 -8 -16 -8 -25 3 -10 12
-3 15 39 21 28 4 49 9 46 12 -3 3 -30 2 -60 -1 -54 -7 -55 -8 -41 -29 30 -46
56 -192 58 -328 2 -128 1 -132 -22 -147 l-23 -16 7 95 c12 162 -36 378 -89
399 -19 8 -19 9 6 9 15 1 29 5 32 10 8 12 -46 0 -69 -15 -11 -8 -38 -14 -60
-14 -47 0 -86 27 -114 80 l-18 34 50 48 c32 31 60 48 76 49 23 0 23 1 7 8 -14
5 -16 10 -7 15 6 4 9 16 6 25 -5 16 2 17 62 17 38 -1 80 4 94 11 26 12 108 5
190 -15 21 -5 43 -6 50 -1 8 5 26 9 42 9 17 0 27 5 27 15 0 10 10 15 28 15 16
0 37 7 48 16 10 8 13 12 5 8 -10 -5 -13 -3 -9 8 5 11 0 14 -19 10 -27 -5 -163
17 -163 27 0 3 -24 7 -52 7 -58 2 -321 -14 -353 -21 -14 -3 -24 4 -33 23 -27
54 -27 56 -1 39 16 -10 36 -13 59 -9 19 3 91 5 160 4 77 0 115 2 99 7 -14 5
-86 7 -160 6 -74 -1 -139 0 -146 3 -11 3 -53 66 -53 78 0 8 150 4 248 -6 118
-13 340 -66 365 -87 24 -23 21 -31 -10 -27 -16 2 -9 -2 15 -8 34 -9 46 -8 55
2 7 8 7 10 1 7 -6 -4 -16 4 -21 16 -8 17 -32 28 -111 50 -56 16 -117 31 -137
34 -50 8 -51 18 -7 50 22 16 37 34 34 42 -3 8 0 11 7 7 8 -5 11 9 11 46 0 52
27 129 49 142 6 4 8 12 5 18 -4 6 -2 8 4 4 6 -3 13 -2 16 3 12 19 -23 18 -76
-4z m-66 -56 c-29 -16 -88 -62 -130 -101 l-77 -72 60 63 c58 61 166 141 189
141 6 0 -13 -14 -42 -31z m-478 -71 c-9 -29 -19 -96 -23 -148 l-8 -95 -2 80
c-1 86 25 215 44 215 2 0 -3 -24 -11 -52z m176 -448 c0 -5 -4 -10 -10 -10 -5
0 -10 -6 -10 -13 0 -8 -9 -22 -20 -32 -18 -16 -20 -17 -26 -1 -4 11 2 26 16
42 24 24 50 32 50 14z m-147 -78 c-22 -5 -27 5 -12 21 12 13 15 13 20 -2 4
-10 1 -17 -8 -19z m273 -164 c4 -6 3 -9 -2 -5 -11 6 -79 -21 -71 -29 3 -3 11
-3 18 2 7 4 25 8 40 9 36 3 49 -26 50 -117 1 -39 4 -65 8 -59 5 7 12 2 19 -14
24 -52 7 -117 -18 -70 -20 38 -29 30 -17 -15 7 -25 14 -35 19 -27 4 7 8 -5 8
-29 0 -28 -6 -46 -20 -59 -11 -10 -20 -23 -19 -29 0 -6 3 -6 6 2 2 7 13 17 24
22 16 9 19 7 19 -10 0 -24 -51 -50 -100 -50 -29 0 -30 1 -30 53 0 28 -1 68 -2
87 -2 60 7 118 17 117 6 -1 9 6 9 15 -1 10 2 15 7 12 11 -6 12 30 2 40 -5 4
-8 12 -8 18 0 6 -11 13 -24 15 -24 3 -24 3 -5 -19 l19 -23 -22 19 c-13 10 -20
23 -17 28 3 5 3 26 -1 46 -7 34 -8 35 -16 14 -7 -19 -12 -21 -29 -12 -15 8
-19 18 -15 33 5 22 5 22 -6 0 -8 -16 -21 -23 -41 -23 -32 0 -36 10 -10 32 20
18 92 31 92 17 0 -5 -4 -9 -10 -9 -5 0 -10 -6 -10 -12 1 -8 8 -4 18 7 10 12
32 22 51 23 19 1 37 5 40 7 8 8 20 5 27 -7z m461 -20 c-3 -7 -5 -2 -5 12 0 14
2 19 5 13 2 -7 2 -19 0 -25z m53 10 c-1 -13 -5 -42 -9 -66 -6 -29 -4 -55 5
-81 15 -44 4 -105 -21 -115 -13 -5 -15 8 -13 82 1 49 -2 94 -6 100 -4 7 -2 20
3 29 9 15 11 12 12 -17 1 -34 1 -34 10 10 5 25 7 53 5 63 -2 9 0 17 5 17 5 0
9 -10 9 -22z m-795 -21 c24 -18 11 -37 -26 -37 -24 0 -29 4 -29 25 0 28 24 34
55 12z m-166 -192 c0 -5 -4 -3 -9 5 -5 8 -9 22 -9 30 0 16 17 -16 18 -35z m31
-27 c0 -15 5 -30 10 -33 6 -3 10 -16 10 -27 0 -12 -3 -18 -6 -15 -4 3 -15 2
-25 -4 -17 -9 -19 -6 -19 23 0 58 12 111 21 96 5 -7 9 -25 9 -40z m327 16 c-3
-3 -12 -4 -19 -1 -8 3 -5 6 6 6 11 1 17 -2 13 -5z m-50 -10 c-3 -3 -12 -4 -19
-1 -8 3 -5 6 6 6 11 1 17 -2 13 -5z m737 -15 c-4 -7 0 -9 14 -5 13 5 29 -1 48
-17 42 -37 22 -53 -74 -60 -83 -5 -134 -25 -191 -73 -36 -30 -29 -44 25 -44
40 0 202 -55 192 -66 -6 -5 -97 18 -143 36 -36 14 -115 21 -115 10 0 -5 19
-11 43 -15 23 -4 58 -14 77 -23 19 -8 40 -14 47 -13 6 1 14 -3 17 -8 3 -5 -22
-12 -55 -16 -45 -5 -64 -4 -69 5 -17 28 -227 -7 -270 -45 -8 -7 -36 -16 -61
-20 l-47 -7 6 28 5 27 -64 -6 c-35 -4 -85 -9 -111 -13 -37 -5 -56 -2 -93 16
-47 23 -59 23 -175 4 -25 -4 -54 2 -100 21 l-65 25 70 -5 c103 -8 128 -6 144
10 13 13 8 17 -35 35 -27 12 -58 25 -69 30 -11 5 -48 14 -82 19 -62 10 -107
33 -118 60 -9 23 1 23 41 2 21 -12 52 -21 69 -21 44 0 166 -37 198 -60 15 -11
39 -29 55 -40 15 -11 36 -21 47 -23 11 -1 35 -13 53 -27 24 -17 29 -26 20 -33
-9 -6 -6 -6 7 -2 67 25 126 36 175 32 30 -3 91 2 134 10 44 8 88 12 98 10 10
-3 16 -2 13 2 -2 5 7 13 20 19 16 7 34 32 48 64 25 56 32 61 136 103 43 16 84
25 122 25 32 0 61 5 64 10 4 6 -12 10 -41 10 -46 0 -47 0 -29 20 20 22 30 27
19 9z m227 -102 c-10 -9 -11 -8 -5 6 3 10 9 15 12 12 3 -3 0 -11 -7 -18z
m-1141 -8 c0 -5 -4 -9 -10 -9 -5 0 -10 7 -10 16 0 8 5 12 10 9 6 -3 10 -10 10
-16z m51 -33 c8 -27 7 -28 -12 -10 -21 19 -26 48 -7 42 7 -3 15 -17 19 -32z
m566 -39 c-12 -28 -24 -38 -63 -51 -56 -19 -54 -19 -54 -6 0 5 21 21 48 34 26
13 53 34 60 46 20 32 25 17 9 -23z m-471 -8 c3 -5 -1 -9 -10 -9 -21 0 -46 11
-46 20 0 10 49 0 56 -11z m-381 -49 c-11 -5 -27 -9 -35 -9 -13 -1 -13 0 0 9 8
5 24 9 35 9 l20 0 -20 -9z m386 -17 c13 -16 12 -17 -3 -4 -10 7 -18 15 -18 17
0 8 8 3 21 -13z m154 7 c-11 -5 -29 -9 -40 -9 l-20 0 20 9 c11 5 29 9 40 9
l20 0 -20 -9z m88 -7 c-13 -2 -33 -2 -45 0 -13 2 -3 4 22 4 25 0 35 -2 23 -4z
m241 -51 c2 -4 -7 -8 -22 -9 -24 -2 -24 -1 -7 7 11 5 21 9 22 9 1 1 4 -3 7 -7z"/>
<path d="M836 645 c3 -11 13 -40 20 -65 l14 -45 -6 40 c-3 22 -12 51 -21 65
-9 15 -12 17 -7 5z"/>
<path d="M830 415 c0 -5 5 -17 10 -25 5 -8 10 -10 10 -5 0 6 -5 17 -10 25 -5
8 -10 11 -10 5z"/>
<path d="M861 383 c-10 -26 -10 -27 4 -9 8 11 15 23 15 28 0 15 -7 8 -19 -19z"/>
<path d="M841 324 c0 -11 3 -14 6 -6 3 7 2 16 -1 19 -3 4 -6 -2 -5 -13z"/>
<path d="M1043 1184 c3 -3 24 -8 47 -10 23 -2 46 -6 51 -9 5 -3 26 -3 46 2
l38 7 -55 7 c-72 9 -135 11 -127 3z"/>
<path d="M878 1163 c12 -2 32 -2 45 0 12 2 2 4 -23 4 -25 0 -35 -2 -22 -4z"/>
<path d="M1344 1131 c3 -14 0 -32 -6 -40 -9 -11 -6 -11 7 1 15 14 17 21 6 40
l-12 23 5 -24z"/>
<path d="M1214 749 c9 -14 13 -30 9 -35 -4 -5 -1 -3 7 4 12 10 11 15 -9 35
l-23 22 16 -26z"/>
<path d="M1080 729 c0 -5 -4 -8 -9 -5 -5 3 -15 -2 -22 -12 -13 -15 -12 -16 4
-3 20 15 22 9 6 -21 -10 -18 -8 -19 11 -13 12 4 27 1 35 -5 12 -10 15 -9 15 8
0 12 -9 23 -21 27 -16 5 -18 10 -8 21 8 10 8 14 0 14 -6 0 -11 -5 -11 -11z"/>
<path d="M1170 731 c0 -7 -6 -9 -12 -6 -7 4 -6 1 2 -7 29 -25 50 -62 50 -91 0
-19 -4 -26 -12 -21 -8 5 -9 2 -4 -11 4 -11 0 -25 -11 -38 -18 -19 -17 -20 4
-8 28 14 37 49 29 102 -5 31 -3 39 6 34 7 -4 4 1 -7 9 -11 9 -26 24 -32 33 -8
10 -13 12 -13 4z"/>
<path d="M1035 616 c2 -22 12 -47 21 -55 15 -15 15 -14 3 9 -7 14 -16 39 -21
55 -7 26 -7 25 -3 -9z"/>
<path d="M1135 561 c-3 -6 -18 -12 -33 -12 -17 -1 -21 -3 -9 -6 9 -2 17 -9 17
-14 0 -5 8 -9 17 -9 9 0 13 3 10 7 -4 3 -2 12 5 20 6 7 8 16 5 19 -3 3 -8 1
-12 -5z"/>
<path d="M1061 523 c13 -21 67 -48 76 -39 3 2 -6 7 -19 11 -13 4 -34 17 -47
29 l-24 21 14 -22z"/>
</g>
</svg>
