<?xml version="1.0" standalone="no"?>
<!DOCTYPE svg PUBLIC "-//W3C//DTD SVG 20010904//EN"
 "http://www.w3.org/TR/2001/REC-SVG-20010904/DTD/svg10.dtd">
<svg version="1.0" xmlns="http://www.w3.org/2000/svg"
 width="825.000000pt" height="404.000000pt" viewBox="0 0 825.000000 404.000000"
 preserveAspectRatio="xMidYMid meet">

<g transform="translate(0.000000,404.000000) scale(0.100000,-0.100000)"
fill="#000000" stroke="none">
<path d="M2025 3894 c-113 -181 -378 -504 -426 -519 -31 -10 -33 -1 -13 67 24
79 26 339 4 433 l-14 60 -8 -80 c-20 -216 -94 -410 -224 -592 -51 -71 -177
-203 -233 -244 l-33 -24 16 -48 c9 -26 16 -73 16 -104 0 -51 -3 -58 -38 -93
-30 -30 -48 -40 -87 -45 -156 -21 -235 -92 -235 -210 0 -52 13 -58 35 -15 22
42 52 56 75 35 10 -9 22 -29 25 -45 9 -40 94 -110 134 -110 6 0 7 36 4 95 -6
96 2 120 25 71 16 -36 95 -77 160 -83 l57 -5 -42 38 c-69 65 -82 145 -34 211
40 55 107 111 166 139 59 28 150 32 195 9 42 -22 80 -92 80 -148 0 -85 -66
-132 -206 -144 l-75 -6 31 -31 c37 -39 37 -49 3 -72 -46 -31 -84 -46 -163 -64
l-75 -16 63 -25 c34 -13 62 -27 62 -30 0 -6 -20 -10 -138 -24 -61 -8 -63 -20
-7 -49 54 -28 181 -33 323 -12 152 23 151 22 97 63 -25 18 -45 38 -45 42 0 5
15 20 33 34 17 14 73 64 122 111 50 47 95 86 101 86 52 0 261 96 340 157 l38
28 -69 6 c-50 4 -72 11 -81 24 -18 25 -18 85 0 111 14 19 20 20 78 12 147 -20
253 -75 282 -147 65 -165 -86 -369 -380 -513 -140 -69 -220 -124 -309 -212
-92 -91 -147 -167 -195 -269 -51 -106 -70 -181 -77 -294 -8 -138 17 -252 84
-373 119 -216 413 -553 771 -883 l174 -161 57 60 c31 33 117 125 191 205 147
157 233 248 415 439 134 140 123 129 224 232 l74 76 -27 72 c-81 220 23 425
305 602 47 29 103 62 127 72 23 10 42 22 42 26 0 4 -11 15 -25 24 -70 46 -159
161 -181 234 -40 131 9 231 135 275 63 22 198 38 266 32 27 -2 88 -7 134 -10
l84 -6 -80 65 c-110 88 -178 167 -220 256 -32 65 -37 84 -37 150 0 66 4 83 34
144 76 152 269 296 571 425 113 47 367 135 423 145 66 13 27 24 -125 35 -264
20 -477 12 -814 -30 -205 -25 -239 -31 -480 -84 -263 -58 -658 -174 -743 -219
l-24 -12 39 -29 c73 -56 186 -179 241 -264 180 -276 191 -568 33 -886 -78
-157 -147 -259 -245 -363 -155 -163 -336 -262 -489 -265 -72 -2 -114 15 -172
71 -96 93 -109 234 -35 382 41 81 105 147 223 229 199 137 299 252 348 402 27
84 32 220 10 299 -41 144 -146 274 -276 342 -79 41 -228 90 -325 108 -36 7
-75 14 -87 16 -13 3 -23 8 -23 12 0 7 44 58 294 343 151 171 151 171 63 99
-43 -36 -93 -76 -111 -90 -19 -14 -91 -70 -162 -126 -143 -112 -228 -174 -238
-174 -11 0 0 30 82 220 41 96 87 204 102 240 15 36 37 86 49 113 11 26 19 47
17 47 -2 0 -25 -34 -51 -76z m-665 -843 c0 -12 -29 -41 -41 -41 -15 0 -10 22
9 36 20 16 32 18 32 5z"/>
<path d="M4490 1770 l0 -1300 259 0 259 0 69 83 c324 386 524 801 603 1253 64
370 44 714 -66 1122 l-38 142 -543 0 -543 0 0 -1300z m774 1022 c3 -5 17 -65
30 -133 99 -486 24 -999 -214 -1463 -57 -113 -184 -321 -201 -331 -5 -4 -9
369 -9 964 l0 971 194 0 c107 0 197 -4 200 -8z"/>
<path d="M6020 2780 l0 -290 -85 0 -85 0 0 -130 0 -130 85 0 85 0 0 -880 0
-880 190 0 190 0 0 880 0 880 220 0 220 0 0 130 0 130 -220 0 -220 0 0 155 0
155 198 2 197 3 3 133 3 132 -391 0 -390 0 0 -290z"/>
<path d="M7860 3055 c-258 -44 -449 -135 -600 -285 -138 -137 -190 -259 -190
-442 l0 -98 344 0 344 0 12 -62 c21 -112 24 -370 6 -496 -37 -252 -129 -471
-289 -689 -69 -93 -283 -305 -387 -383 -47 -35 -89 -67 -94 -71 -6 -5 -4 -18
4 -34 l13 -25 212 0 212 0 104 94 c188 168 332 355 439 571 120 241 168 431
177 700 7 205 -23 419 -88 623 l-11 32 -289 0 c-321 0 -310 -3 -261 66 97 133
268 223 461 242 l66 7 3 133 3 132 -58 -1 c-32 -1 -92 -7 -133 -14z"/>
</g>
</svg>
